<svg xmlns="http://www.w3.org/2000/svg" width="1060" height="640" viewBox="0 0 1060 640" font-family="Arial, Helvetica, sans-serif"><rect width="1060" height="640" fill="#ffffff"/><text x="24" y="28" text-anchor="start" font-size="15" font-weight="bold" fill="#1f3864">WVI Subsystem Interface and Control Diagram</text><text x="24" y="47" text-anchor="start" font-size="10.5" font-weight="normal" fill="#5b6773">UAVPayload-TAQ-26 Group One  ·  Web Visualisation Subsystem (WVI)</text><rect x="300" y="76" width="440" height="462" fill="#fcfdfe" stroke="#1f3864" stroke-width="1.6" stroke-dasharray="6 4"/><text x="520.0" y="311.0" text-anchor="middle" font-size="13" font-weight="bold" fill="#14181d"></text><text x="520" y="100" text-anchor="middle" font-size="11.5" font-weight="bold" fill="#1f3864">WEB VISUALISATION SUBSYSTEM (WVI)</text><text x="520" y="116" text-anchor="middle" font-size="9.5" font-weight="normal" fill="#5b6773">edge-hosted service on the payload computer</text><rect x="350" y="132" width="330" height="54" fill="#e8edf5" stroke="#8d99a8" stroke-width="1"/><text x="515.0" y="157.0" text-anchor="middle" font-size="13" font-weight="bold" fill="#14181d">Ingest and validation</text><text x="515.0" y="173.0" text-anchor="middle" font-size="10.5" fill="#5b6773">schema check, timestamping</text><rect x="350" y="214" width="330" height="54" fill="#e8edf5" stroke="#8d99a8" stroke-width="1"/><text x="515.0" y="239.0" text-anchor="middle" font-size="13" font-weight="bold" fill="#14181d">Distribution hub</text><text x="515.0" y="255.0" text-anchor="middle" font-size="10.5" fill="#5b6773">fan-out, latest value, staleness</text><rect x="350" y="296" width="330" height="54" fill="#e8edf5" stroke="#8d99a8" stroke-width="1"/><text x="515.0" y="321.0" text-anchor="middle" font-size="13" font-weight="bold" fill="#14181d">Persistence</text><text x="515.0" y="337.0" text-anchor="middle" font-size="10.5" fill="#5b6773">SQLite timestamped log</text><rect x="350" y="378" width="330" height="54" fill="#e8edf5" stroke="#8d99a8" stroke-width="1"/><text x="515.0" y="403.0" text-anchor="middle" font-size="13" font-weight="bold" fill="#14181d">HTTP server</text><text x="515.0" y="419.0" text-anchor="middle" font-size="10.5" fill="#5b6773">SSE, MJPEG, query API</text><rect x="350" y="460" width="330" height="48" fill="#f2f4f7" stroke="#8d99a8" stroke-width="1"/><text x="515.0" y="482.0" text-anchor="middle" font-size="13" font-weight="bold" fill="#14181d">Presentation layer</text><text x="515.0" y="498.0" text-anchor="middle" font-size="10.5" fill="#5b6773">HTML / CSS / JavaScript dashboard</text><polyline points="515,186 515,214" fill="none" stroke="#1f3864" stroke-width="1.5"/><polygon points="515.0,214.0 510.4,203.0 519.6,203.0" fill="#1f3864"/><polyline points="450,268 450,296" fill="none" stroke="#1f3864" stroke-width="1.5"/><polygon points="450.0,296.0 445.4,285.0 454.6,285.0" fill="#1f3864"/><text x="444" y="288" text-anchor="end" font-size="9" font-weight="normal" fill="#5b6773">write</text><polyline points="680,241 712,241 712,405 680,405" fill="none" stroke="#1f3864" stroke-width="1.5"/><polygon points="680.0,405.0 691.0,400.4 691.0,409.6" fill="#1f3864"/><text x="716" y="330" text-anchor="start" font-size="9" font-weight="normal" fill="#5b6773">push</text><polyline points="590,350 590,378" fill="none" stroke="#1f3864" stroke-width="1.5"/><polygon points="590.0,378.0 585.4,367.0 594.6,367.0" fill="#1f3864"/><polygon points="590.0,350.0 594.6,361.0 585.4,361.0" fill="#1f3864"/><text x="598" y="370" text-anchor="start" font-size="9" font-weight="normal" fill="#5b6773">query</text><polyline points="515,432 515,460" fill="none" stroke="#1f3864" stroke-width="1.5"/><polygon points="515.0,460.0 510.4,449.0 519.6,449.0" fill="#1f3864"/><rect x="40" y="126" width="180" height="54" fill="#ffffff" stroke="#8d99a8" stroke-width="1"/><text x="130.0" y="151.0" text-anchor="middle" font-size="13" font-weight="bold" fill="#14181d">Air Quality (AQ)</text><text x="130.0" y="167.0" text-anchor="middle" font-size="10.5" fill="#5b6773">Enviro+ sensor board</text><rect x="40" y="208" width="180" height="54" fill="#ffffff" stroke="#8d99a8" stroke-width="1"/><text x="130.0" y="233.0" text-anchor="middle" font-size="13" font-weight="bold" fill="#14181d">Image Processing (IP)</text><text x="130.0" y="249.0" text-anchor="middle" font-size="10.5" fill="#5b6773">onboard detector</text><rect x="40" y="290" width="180" height="54" fill="#ffffff" stroke="#8d99a8" stroke-width="1"/><text x="130.0" y="315.0" text-anchor="middle" font-size="13" font-weight="bold" fill="#14181d">Target Analysis (TAI)</text><text x="130.0" y="331.0" text-anchor="middle" font-size="10.5" fill="#5b6773">classification, alerts</text><rect x="40" y="400" width="180" height="54" fill="#ffffff" stroke="#8d99a8" stroke-width="1"/><text x="130.0" y="425.0" text-anchor="middle" font-size="13" font-weight="bold" fill="#14181d">Payload camera</text><text x="130.0" y="441.0" text-anchor="middle" font-size="10.5" fill="#5b6773">Pi Camera module</text><rect x="830" y="250" width="190" height="84" fill="#ffffff" stroke="#8d99a8" stroke-width="1"/><text x="925.0" y="290.0" text-anchor="middle" font-size="13" font-weight="bold" fill="#14181d">Ground Control</text><text x="925.0" y="306.0" text-anchor="middle" font-size="10.5" fill="#5b6773">Station browser</text><text x="925" y="350" text-anchor="middle" font-size="9.5" font-weight="normal" fill="#5b6773">remote, QUT lab LAN</text><rect x="300" y="566" width="440" height="44" fill="#f2f4f7" stroke="#8d99a8" stroke-width="1"/><text x="520.0" y="586.0" text-anchor="middle" font-size="13" font-weight="bold" fill="#14181d">Raspberry Pi platform</text><text x="520.0" y="602.0" text-anchor="middle" font-size="10.5" fill="#5b6773">Linux, Python 3, WLAN interface</text><polyline points="220,153 350,148" fill="none" stroke="#1f3864" stroke-width="1.5"/><polygon points="350.0,148.0 339.2,153.0 338.8,143.8" fill="#1f3864"/><polyline points="220,235 350,162" fill="none" stroke="#1f3864" stroke-width="1.5"/><polygon points="350.0,162.0 342.7,171.4 338.2,163.4" fill="#1f3864"/><polyline points="220,317 350,176" fill="none" stroke="#1f3864" stroke-width="1.5"/><polygon points="350.0,176.0 345.9,187.2 339.2,181.0" fill="#1f3864"/><polyline points="220,427 270,427 270,405 350,405" fill="none" stroke="#1f3864" stroke-width="1.5"/><polygon points="350.0,405.0 339.0,409.6 339.0,400.4" fill="#1f3864"/><polyline points="680,392 830,272" fill="none" stroke="#1f3864" stroke-width="1.5"/><polygon points="830.0,272.0 824.3,282.5 818.5,275.3" fill="#1f3864"/><polyline points="680,405 830,292" fill="none" stroke="#1f3864" stroke-width="1.5"/><polygon points="830.0,292.0 824.0,302.3 818.4,294.9" fill="#1f3864"/><polyline points="680,418 830,312" fill="none" stroke="#1f3864" stroke-width="1.5"/><polygon points="830.0,312.0 823.7,322.1 818.4,314.6" fill="#1f3864"/><polygon points="680.0,418.0 686.3,407.9 691.6,415.4" fill="#1f3864"/><polyline points="520,538 520,566" fill="none" stroke="#1f3864" stroke-width="1.5"/><polygon points="520.0,566.0 515.4,555.0 524.6,555.0" fill="#1f3864"/><polygon points="520.0,538.0 524.6,549.0 515.4,549.0" fill="#1f3864"/><rect x="258.2" y="128.975" width="53.6" height="14.25" fill="#ffffff" stroke="none"/><text x="285" y="141.325" text-anchor="middle" font-size="9.5" font-weight="bold" fill="#1f3864">WVI-I-01</text><rect x="258.2" y="180.975" width="53.6" height="14.25" fill="#ffffff" stroke="none"/><text x="285" y="193.325" text-anchor="middle" font-size="9.5" font-weight="bold" fill="#1f3864">WVI-I-02</text><rect x="258.2" y="230.975" width="53.6" height="14.25" fill="#ffffff" stroke="none"/><text x="285" y="243.325" text-anchor="middle" font-size="9.5" font-weight="bold" fill="#1f3864">WVI-I-03</text><rect x="273.2" y="386.975" width="53.6" height="14.25" fill="#ffffff" stroke="none"/><text x="300" y="399.325" text-anchor="middle" font-size="9.5" font-weight="bold" fill="#1f3864">WVI-I-04</text><rect x="730.2" y="308.975" width="53.6" height="14.25" fill="#ffffff" stroke="none"/><text x="757" y="321.325" text-anchor="middle" font-size="9.5" font-weight="bold" fill="#1f3864">WVI-I-05</text><rect x="739.2" y="344.975" width="53.6" height="14.25" fill="#ffffff" stroke="none"/><text x="766" y="357.325" text-anchor="middle" font-size="9.5" font-weight="bold" fill="#1f3864">WVI-I-06</text><rect x="748.2" y="380.975" width="53.6" height="14.25" fill="#ffffff" stroke="none"/><text x="775" y="393.325" text-anchor="middle" font-size="9.5" font-weight="bold" fill="#1f3864">WVI-I-07</text><rect x="548.2" y="546.975" width="53.6" height="14.25" fill="#ffffff" stroke="none"/><text x="575" y="559.325" text-anchor="middle" font-size="9.5" font-weight="bold" fill="#1f3864">WVI-I-08</text><text x="24" y="622" text-anchor="start" font-size="9.5" font-weight="normal" fill="#5b6773">Arrowheads indicate direction of data flow. Double-headed arrows are request/response. AQ, IP and TAI are co-resident on the payload computer.</text></svg>